<svg fill="none" height="24" viewBox="0 0 24 24" width="24" xmlns="http://www.w3.org/2000/svg" xmlns:xlink="http://www.w3.org/1999/xlink"><clipPath id="a"><path d="m0 0h24v24h-24z"/></clipPath><g clip-path="url(#a)" clip-rule="evenodd" fill="#000" fill-rule="evenodd"><path d="m16 2.41694v4.16668c0 .23021.224.41667.5.41667s.5-.18646.5-.41667v-4.16668c0-.2302-.224-.41667-.5-.41667s-.5.18647-.5.41667z"/><path d="m7 2.41694v4.16668c0 .23021.224.41667.5.41667s.5-.18646.5-.41667v-4.16668c0-.2302-.224-.41667-.5-.41667s-.5.18647-.5.41667z"/><path d="m3 6.47v14.06c0 1.364 1.103 2.47 2.463 2.47h13.074c1.36 0 2.463-1.106 2.463-2.47v-14.06c0-1.364-1.103-2.47-2.463-2.47-3.282 0-9.792 0-13.074 0-1.36 0-2.463 1.106-2.463 2.47zm5 10.53c.552 0 1 .448 1 1s-.448 1-1 1-1-.448-1-1 .448-1 1-1zm4 0c.552 0 1 .448 1 1s-.448 1-1 1-1-.448-1-1 .448-1 1-1zm4 0c.552 0 1 .448 1 1s-.448 1-1 1-1-.448-1-1 .448-1 1-1zm-8-4c.552 0 1 .448 1 1s-.448 1-1 1-1-.448-1-1 .448-1 1-1zm4 0c.552 0 1 .448 1 1s-.448 1-1 1-1-.448-1-1 .448-1 1-1zm4 0c.552 0 1 .448 1 1s-.448 1-1 1-1-.448-1-1 .448-1 1-1zm4.053-3h-16.106v-3.53c0-.84.679-1.51999 1.516-1.51999h13.074c.837 0 1.516.67999 1.516 1.51999z"/></g></svg>